<?xml version="1.0" encoding="utf-8"?>
<svg xmlns="http://www.w3.org/2000/svg" style="margin: auto; background: rgb(2, 1, 2); display: block; shape-rendering: auto;" width="280" height="250" preserveAspectRatio="xMidYMid">
<style type="text/css">
  text {
    text-anchor: middle; font-size: 32px; opacity: 0;
  }
</style>
<g style="transform-origin: 140px 125px; transform: scale(0.4);">
<g transform="translate(140,125)">
  <g transform="translate(0,0)"><g class="path" style="transform: rotate(0deg); transform-origin: -228.12px 1.69193px; animation: 1s linear -0.6s infinite normal forwards running spin-f914a3af-a029-4138-9fb1-a8b6f9d20374;"><path d="M17.16-14.56L17.16-14.56L17.16-14.56Q14.96-16.24 13.28-19.68L13.28-19.68L13.28-19.68Q11.60-23.12 11.60-27.44L11.60-27.44L11.60-27.44Q11.60-31.76 12.96-35.44L12.96-35.44L12.96-35.44Q14.32-39.12 17-42.12L17-42.12L17-42.12Q19.68-45.12 24.16-46.92L24.16-46.92L24.16-46.92Q28.64-48.72 33.68-48.72L33.68-48.72L33.68-48.72Q38.72-48.72 42.80-47.96L42.80-47.96L42.80-47.96Q46.88-47.20 49.20-46.36L49.20-46.36L49.20-46.36Q51.52-45.52 53.32-44.76L53.32-44.76L53.32-44.76Q55.12-44 56.24-43.56L56.24-43.56L56.24-43.56Q57.36-43.12 57.60-43.04L57.60-43.04L57.60-43.04Q57.84-42.96 58.88-42.56L58.88-42.56L58.88-42.56Q59.92-42.16 60.28-42.08L60.28-42.08L60.28-42.08Q60.64-42 61.56-41.68L61.56-41.68L61.56-41.68Q62.48-41.36 63-41.28L63-41.28L63-41.28Q63.52-41.20 64.40-41L64.40-41L64.40-41Q65.28-40.80 65.92-40.76L65.92-40.76L65.92-40.76Q66.56-40.72 67.44-40.64L67.44-40.64L67.44-40.64Q68.32-40.56 69.12-40.56L69.12-40.56L69.12-40.56Q73.04-40.56 75.96-41.88L75.96-41.88L75.96-41.88Q78.88-43.20 80.20-44.80L80.20-44.80L80.20-44.80Q81.52-46.40 82.32-48.48L82.32-48.48L82.32-48.48Q83.28-51.04 83.28-53.12L83.28-53.12L85.04-53.12L85.04-53.12Q85.04-51.20 84.04-48.44L84.04-48.44L84.04-48.44Q83.04-45.68 81.56-43.80L81.56-43.80L81.56-43.80Q80.08-41.92 76.80-40.40L76.80-40.40L76.80-40.40Q73.52-38.88 69-38.88L69-38.88L69-38.88Q64.48-38.88 59.92-40.32L59.92-40.32L59.92-40.32Q54.48-32.64 48.48-9.36L48.48-9.36L48.48-9.36Q45.52 2.32 39.96 7.64L39.96 7.64L39.96 7.64Q34.40 12.96 23.88 12.96L23.88 12.96L23.88 12.96Q13.36 12.96 8.16 6.56L8.16 6.56L8.16 6.56Q3.60 0.88 3.60-6.64L3.60-6.64L3.60-6.64Q3.60-7.60 3.68-8.56L3.68-8.56L5.52-8.56L5.52-7.44L5.52-7.44Q5.52-1.92 8.48 3.36L8.48 3.36L8.48 3.36Q9.76 5.60 11.56 7.24L11.56 7.24L11.56 7.24Q13.36 8.88 16.40 10L16.40 10L16.40 10Q19.44 11.12 23.20 11.12L23.20 11.12L23.20 11.12Q29.44 11.12 33.08 6.08L33.08 6.08L33.08 6.08Q36.72 1.04 40.12-13.40L40.12-13.40L40.12-13.40Q43.52-27.84 47.08-34.04L47.08-34.04L47.08-34.04Q50.64-40.24 57.44-41.20L57.44-41.20L57.44-41.20Q55.36-42 53.04-43L53.04-43L53.04-43Q50.72-44 48.60-44.76L48.60-44.76L48.60-44.76Q46.48-45.52 42.52-46.28L42.52-46.28L42.52-46.28Q38.56-47.04 33.68-47.04L33.68-47.04L33.68-47.04Q28.80-47.04 24.60-45.28L24.60-45.28L24.60-45.28Q20.40-43.52 18.08-40.64L18.08-40.64L18.08-40.64Q13.44-35.04 13.44-27.68L13.44-27.68L13.44-27.68Q13.44-23.52 14.96-20.36L14.96-20.36L14.96-20.36Q16.48-17.20 18.64-15.68L18.64-15.68L18.64-15.68Q23.04-12.72 26.64-12.32L26.64-12.32L28.16-12.16L27.68-10.40L27.68-10.40Q25.68-10.40 22.52-11.64L22.52-11.64L22.52-11.64Q19.36-12.88 17.16-14.56" fill="#93dbe9" stroke="none" stroke-width="none" transform="translate(-272.44000244140625,21.771925881125703)" style="fill: rgb(147, 219, 233);"></path></g><g class="path" style="transform: rotate(0deg); transform-origin: -178.76px 6.57192px; animation: 1s linear -0.54s infinite normal forwards running spin-f914a3af-a029-4138-9fb1-a8b6f9d20374;"><path d="M97.20-31.12L97.20-31.12L97.20-31.12Q107.36-31.12 107.36-23.04L107.36-23.04L107.36-23.04Q107.36-18 102.60-15.40L102.60-15.40L102.60-15.40Q97.84-12.80 89.04-12.72L89.04-12.72L89.04-12.72Q88.88-9.84 88.88-8.16L88.88-8.16L88.88-8.16Q88.88-4.56 90.52-2.84L90.52-2.84L90.52-2.84Q92.16-1.12 94.64-1.12L94.64-1.12L94.64-1.12Q97.12-1.12 99.16-2.08L99.16-2.08L99.16-2.08Q101.20-3.04 102.40-4.36L102.40-4.36L102.40-4.36Q103.60-5.68 104.48-7.12L104.48-7.12L104.48-7.12Q106.08-9.76 106.08-10.48L106.08-10.48L107.52-9.84L107.52-9.84Q107.28-8.56 106.08-6.44L106.08-6.44L106.08-6.44Q104.88-4.32 103.44-2.96L103.44-2.96L103.44-2.96Q102-1.60 99.20-0.44L99.20-0.44L99.20-0.44Q96.40 0.72 92.96 0.72L92.96 0.72L92.96 0.72Q86.48 0.72 83.16-2.36L83.16-2.36L83.16-2.36Q79.84-5.44 79.84-10.80L79.84-10.80L79.84-10.80Q79.84-20.32 84.56-25.72L84.56-25.72L84.56-25.72Q89.28-31.12 97.20-31.12zM105.36-23.04L105.36-23.04Q105.36-25.68 103.80-27.40L103.80-27.40L103.80-27.40Q102.24-29.12 99.16-29.12L99.16-29.12L99.16-29.12Q96.08-29.12 93.16-25.44L93.16-25.44L93.16-25.44Q90.24-21.76 89.28-14.56L89.28-14.56L89.28-14.56Q105.36-14.64 105.36-23.04L105.36-23.04" fill="#93dbe9" stroke="none" stroke-width="none" transform="translate(-272.44000244140625,21.771925881125703)" style="fill: rgb(147, 219, 233);"></path></g><g class="path" style="transform: rotate(0deg); transform-origin: -143.48px 6.57192px; animation: 1s linear -0.48s infinite normal forwards running spin-f914a3af-a029-4138-9fb1-a8b6f9d20374;"><path d="M139.92 0.72L139.92 0.72L139.92 0.72Q132.88 0.72 132.24-5.44L132.24-5.44L132.24-5.44Q128.72 0.72 123.36 0.72L123.36 0.72L123.36 0.72Q118.00 0.72 114.84-2.52L114.84-2.52L114.84-2.52Q111.68-5.76 111.68-11.60L111.68-11.60L111.68-11.60Q111.68-20.72 116.16-25.92L116.16-25.92L116.16-25.92Q120.64-31.12 127.76-31.12L127.76-31.12L127.76-31.12Q133.60-31.12 135.52-25.60L135.52-25.60L135.52-25.60Q135.92-28 136.40-30.40L136.40-30.40L136.40-30.40Q142.32-30.40 145.20-30.88L145.20-30.88L146.24-31.12L140.72-0.88L140.72-0.88Q143.12-1.12 144.72-3.12L144.72-3.12L145.92-2.16L145.92-2.16Q143.52 0.72 139.92 0.72zM120.72-7.52L120.72-7.52Q120.72-3.92 121.64-2.52L121.64-2.52L121.64-2.52Q122.56-1.12 124.48-1.12L124.48-1.12L124.48-1.12Q126.40-1.12 128.40-3.20L128.40-3.20L128.40-3.20Q131.04-5.92 132.64-10.08L132.64-10.08L132.64-10.08Q132.88-11.12 133.56-15.08L133.56-15.08L133.56-15.08Q134.24-19.04 134.72-21.60L134.72-21.60L134.72-21.60Q134.48-24.64 133.04-26.88L133.04-26.88L133.04-26.88Q131.60-29.12 129.44-29.12L129.44-29.12L129.44-29.12Q125.52-29.12 123.12-22.12L123.12-22.12L123.12-22.12Q120.72-15.12 120.72-7.52L120.72-7.52" fill="#93dbe9" stroke="none" stroke-width="none" transform="translate(-272.44000244140625,21.771925881125703)" style="fill: rgb(147, 219, 233);"></path></g><g class="path" style="transform: rotate(0deg); transform-origin: -93.88px 6.57192px; animation: 1s linear -0.42s infinite normal forwards running spin-f914a3af-a029-4138-9fb1-a8b6f9d20374;"><path d="M180.88-0.88L180.88-0.88L180.88-0.88Q182.80-0.88 184.88-3.12L184.88-3.12L186.08-2.16L186.08-2.16Q185.52-1.04 183.60-0.16L183.60-0.16L183.60-0.16Q181.68 0.72 179.36 0.72L179.36 0.72L179.36 0.72Q172.08 0.72 172.08-5.84L172.08-5.84L172.08-5.84Q172.08-8.64 173.52-15.84L173.52-15.84L173.52-15.84Q174.96-23.04 174.96-25.28L174.96-25.28L174.96-25.28Q174.96-28.72 171.68-28.72L171.68-28.72L171.68-28.72Q166.72-28.72 163.36-16L163.36-16L160.48 0L150.88 0L156.16-29.52L156.16-29.52Q153.76-29.28 152.16-27.28L152.16-27.28L150.96-28.24L150.96-28.24Q153.36-31.12 157-31.12L157-31.12L157-31.12Q160.64-31.12 162.64-29.28L162.64-29.28L162.64-29.28Q164.64-27.44 164.64-24.08L164.64-24.08L164.64-23.84L164.64-23.84Q167.76-31.12 174.08-31.12L174.08-31.12L174.08-31.12Q178.56-31.12 181.16-28.68L181.16-28.68L181.16-28.68Q183.76-26.24 184-21.84L184-21.84L184-21.84Q185.52-26.24 187.84-28.68L187.84-28.68L187.84-28.68Q190.16-31.12 194.56-31.12L194.56-31.12L194.56-31.12Q198.96-31.12 201.60-28.44L201.60-28.44L201.60-28.44Q204.24-25.76 204.24-21.04L204.24-21.04L204.24-21.04Q204.24-18.56 202.72-11.48L202.72-11.48L202.72-11.48Q201.20-4.40 201.04-0.88L201.04-0.88L201.04-0.88Q202.96-0.88 205.04-3.12L205.04-3.12L206.24-2.16L206.24-2.16Q205.68-1.04 203.76-0.16L203.76-0.16L203.76-0.16Q201.84 0.72 199.52 0.72L199.52 0.72L199.52 0.72Q192.24 0.72 192.24-5.84L192.24-5.84L192.24-5.84Q192.24-8.64 193.68-15.84L193.68-15.84L193.68-15.84Q195.12-23.04 195.12-25.28L195.12-25.28L195.12-25.28Q195.12-28.72 191.84-28.72L191.84-28.72L191.84-28.72Q186.08-28.72 182.56-11.60L182.56-11.60L182.56-11.60Q181.04-4.32 180.88-0.88" fill="#93dbe9" stroke="none" stroke-width="none" transform="translate(-272.44000244140625,21.771925881125703)" style="fill: rgb(147, 219, 233);"></path></g><g class="path" style="transform: rotate(0deg); transform-origin: 7.12px 4.05193px; animation: 1s linear -0.36s infinite normal forwards running spin-f914a3af-a029-4138-9fb1-a8b6f9d20374;"><path d="M324.56 6.56L325.60 7.92L325.60 7.92Q322.56 10.96 317.72 10.96L317.72 10.96L317.72 10.96Q312.88 10.96 310 7.80L310 7.80L310 7.80Q307.12 4.64 307.12-0.52L307.12-0.52L307.12-0.52Q307.12-5.68 308.96-12.40L308.96-12.40L312.56-24.24L312.56-24.24Q305.84-15.76 300.24-8L300.24-8L300.24-8Q289.20 7.28 285.28 12.48L285.28 12.48L283.84 12.08L280.72-26.64L274.32-14.96L274.32-14.96Q265.20 2.24 259.08 7.72L259.08 7.72L259.08 7.72Q252.96 13.20 242.80 13.20L242.80 13.20L242.80 13.20Q234.16 13.20 228.48 7.04L228.48 7.04L228.48 7.04Q224 2 224-5.04L224-5.04L224-5.04Q224-6.32 224.16-7.68L224.16-7.68L225.76-7.52L225.76-7.52Q225.60-6.24 225.60-5.04L225.60-5.04L225.60-5.04Q225.60 1.44 229.68 5.92L229.68 5.92L229.68 5.92Q234.88 11.60 242.80 11.60L242.80 11.60L242.80 11.60Q252.32 11.60 258.16 6.28L258.16 6.28L258.16 6.28Q264 0.96 272.88-15.68L272.88-15.68L287.28-41.84L287.28-41.84Q278.80-42 270.84-44.52L270.84-44.52L270.84-44.52Q262.88-47.04 256.60-47.04L256.60-47.04L256.60-47.04Q250.32-47.04 246.08-42.64L246.08-42.64L246.08-42.64Q241.84-38.24 241.84-31.28L241.84-31.28L240.24-31.28L240.24-31.28Q240.24-38.96 244.92-43.80L244.92-43.80L244.92-43.80Q249.60-48.64 257.04-48.64L257.04-48.64L257.04-48.64Q263.04-48.64 271.32-46.04L271.32-46.04L271.32-46.04Q279.60-43.44 289.20-43.44L289.20-43.44L292.56-0.24L294.16-2.48L294.16-2.48Q311.04-25.68 320.24-35.64L320.24-35.64L320.24-35.64Q329.44-45.60 335.12-45.60L335.12-45.60L335.12-44L335.12-44Q332.64-44 328.80-41.28L328.80-41.28L328.80-41.28Q328.24-39.52 325.04-29.08L325.04-29.08L325.04-29.08Q321.84-18.64 319.32-10.84L319.32-10.84L319.32-10.84Q316.80-3.04 316.80 1.92L316.80 1.92L316.80 1.92Q316.80 6.88 318.56 9.28L318.56 9.28L318.56 9.28Q320.24 9.28 321.72 8.60L321.72 8.60L321.72 8.60Q323.20 7.92 323.92 7.20L323.92 7.20L324.56 6.56" fill="#93dbe9" stroke="none" stroke-width="none" transform="translate(-272.44000244140625,21.771925881125703)" style="fill: rgb(147, 219, 233);"></path></g><g class="path" style="transform: rotate(0deg); transform-origin: 77.32px 6.57192px; animation: 1s linear -0.3s infinite normal forwards running spin-f914a3af-a029-4138-9fb1-a8b6f9d20374;"><path d="M360.72 0.72L360.72 0.72L360.72 0.72Q353.68 0.72 353.04-5.44L353.04-5.44L353.04-5.44Q349.52 0.72 344.16 0.72L344.16 0.72L344.16 0.72Q338.80 0.72 335.64-2.52L335.64-2.52L335.64-2.52Q332.48-5.76 332.48-11.60L332.48-11.60L332.48-11.60Q332.48-20.72 336.96-25.92L336.96-25.92L336.96-25.92Q341.44-31.12 348.56-31.12L348.56-31.12L348.56-31.12Q354.40-31.12 356.32-25.60L356.32-25.60L356.32-25.60Q356.72-28 357.20-30.40L357.20-30.40L357.20-30.40Q363.12-30.40 366-30.88L366-30.88L367.04-31.12L361.52-0.88L361.52-0.88Q363.92-1.12 365.52-3.12L365.52-3.12L366.72-2.16L366.72-2.16Q364.32 0.72 360.72 0.72zM341.52-7.52L341.52-7.52Q341.52-3.92 342.44-2.52L342.44-2.52L342.44-2.52Q343.36-1.12 345.28-1.12L345.28-1.12L345.28-1.12Q347.20-1.12 349.20-3.20L349.20-3.20L349.20-3.20Q351.84-5.92 353.44-10.08L353.44-10.08L353.44-10.08Q353.68-11.12 354.36-15.08L354.36-15.08L354.36-15.08Q355.04-19.04 355.52-21.60L355.52-21.60L355.52-21.60Q355.28-24.64 353.84-26.88L353.84-26.88L353.84-26.88Q352.40-29.12 350.24-29.12L350.24-29.12L350.24-29.12Q346.32-29.12 343.92-22.12L343.92-22.12L343.92-22.12Q341.52-15.12 341.52-7.52L341.52-7.52" fill="#93dbe9" stroke="none" stroke-width="none" transform="translate(-272.44000244140625,21.771925881125703)" style="fill: rgb(147, 219, 233);"></path></g><g class="path" style="transform: rotate(0deg); transform-origin: 116.96px 6.57192px; animation: 1s linear -0.24s infinite normal forwards running spin-f914a3af-a029-4138-9fb1-a8b6f9d20374;"><path d="M402.16-0.88L402.16-0.88L402.16-0.88Q404.08-0.88 406.16-3.12L406.16-3.12L407.36-2.16L407.36-2.16Q406.80-1.04 404.88-0.16L404.88-0.16L404.88-0.16Q402.96 0.72 400.64 0.72L400.64 0.72L400.64 0.72Q393.36 0.72 393.36-5.84L393.36-5.84L393.36-5.84Q393.36-8.64 394.80-15.84L394.80-15.84L394.80-15.84Q396.24-23.04 396.24-25.28L396.24-25.28L396.24-25.28Q396.24-28.72 392.96-28.72L392.96-28.72L392.96-28.72Q390.32-28.72 387.88-25.28L387.88-25.28L387.88-25.28Q385.44-21.84 383.84-15.84L383.84-15.84L381.12-0.88L381.12-0.88Q383.60-1.12 385.20-3.12L385.20-3.12L386.40-2.16L386.40-2.16Q384 0.72 380.40 0.72L380.40 0.72L380.40 0.72Q376.80 0.72 374.76-1.12L374.76-1.12L374.76-1.12Q372.72-2.96 372.72-5.92L372.72-5.92L372.72-5.92Q372.72-7.04 374-14.72L374-14.72L376.64-29.52L376.64-29.52Q374.24-29.28 372.64-27.28L372.64-27.28L371.44-28.24L371.44-28.24Q373.84-31.12 377.48-31.12L377.48-31.12L377.48-31.12Q381.12-31.12 383.12-29.28L383.12-29.28L383.12-29.28Q385.12-27.44 385.12-24.08L385.12-24.08L385.12-23.60L385.12-23.60Q388.40-31.12 395.36-31.12L395.36-31.12L395.36-31.12Q400.08-31.12 402.72-28.44L402.72-28.44L402.72-28.44Q405.36-25.76 405.36-21.04L405.36-21.04L405.36-21.04Q405.36-18.56 403.84-11.48L403.84-11.48L403.84-11.48Q402.32-4.40 402.16-0.88" fill="#93dbe9" stroke="none" stroke-width="none" transform="translate(-272.44000244140625,21.771925881125703)" style="fill: rgb(147, 219, 233);"></path></g><g class="path" style="transform: rotate(0deg); transform-origin: 155.96px 6.57192px; animation: 1s linear -0.18s infinite normal forwards running spin-f914a3af-a029-4138-9fb1-a8b6f9d20374;"><path d="M439.36 0.72L439.36 0.72L439.36 0.72Q432.32 0.72 431.68-5.44L431.68-5.44L431.68-5.44Q428.16 0.72 422.80 0.72L422.80 0.72L422.80 0.72Q417.44 0.72 414.28-2.52L414.28-2.52L414.28-2.52Q411.12-5.76 411.12-11.60L411.12-11.60L411.12-11.60Q411.12-20.72 415.60-25.92L415.60-25.92L415.60-25.92Q420.08-31.12 427.20-31.12L427.20-31.12L427.20-31.12Q433.04-31.12 434.96-25.60L434.96-25.60L434.96-25.60Q435.36-28 435.84-30.40L435.84-30.40L435.84-30.40Q441.76-30.40 444.64-30.88L444.64-30.88L445.68-31.12L440.16-0.88L440.16-0.88Q442.56-1.12 444.16-3.12L444.16-3.12L445.36-2.16L445.36-2.16Q442.96 0.72 439.36 0.72zM420.16-7.52L420.16-7.52Q420.16-3.92 421.08-2.52L421.08-2.52L421.08-2.52Q422.00-1.12 423.92-1.12L423.92-1.12L423.92-1.12Q425.84-1.12 427.84-3.20L427.84-3.20L427.84-3.20Q430.48-5.92 432.08-10.08L432.08-10.08L432.08-10.08Q432.32-11.12 433.00-15.08L433.00-15.08L433.00-15.08Q433.68-19.04 434.16-21.60L434.16-21.60L434.16-21.60Q433.92-24.64 432.48-26.88L432.48-26.88L432.48-26.88Q431.04-29.12 428.88-29.12L428.88-29.12L428.88-29.12Q424.96-29.12 422.56-22.12L422.56-22.12L422.56-22.12Q420.16-15.12 420.16-7.52L420.16-7.52" fill="#93dbe9" stroke="none" stroke-width="none" transform="translate(-272.44000244140625,21.771925881125703)" style="fill: rgb(147, 219, 233);"></path></g><g class="path" style="transform: rotate(0deg); transform-origin: 193.56px 13.5719px; animation: 1s linear -0.12s infinite normal forwards running spin-f914a3af-a029-4138-9fb1-a8b6f9d20374;"><path d="M476.16 8.72L476.16 8.72L476.16 8.72Q479.04 8.72 481.12 6.48L481.12 6.48L482.24 7.44L482.24 7.44Q480.32 10.16 476.16 10.16L476.16 10.16L476.16 10.16Q474.40 10.16 472.56 9.76L472.56 9.76L472.56 9.76Q467.12 14.72 458.64 14.72L458.64 14.72L458.64 14.72Q453.60 14.72 450.84 13L450.84 13L450.84 13Q448.08 11.28 448.08 8.52L448.08 8.52L448.08 8.52Q448.08 5.76 449.80 4.12L449.80 4.12L449.80 4.12Q451.52 2.48 455.92 2.48L455.92 2.48L455.92 2.48Q460.32 2.48 467.52 6.08L467.52 6.08L470-7.20L470-7.20Q466.40-0.56 460.72-0.56L460.72-0.56L460.72-0.56Q449.84-0.56 449.84-11.28L449.84-11.28L449.84-11.28Q449.84-20.24 454.36-25.68L454.36-25.68L454.36-25.68Q458.88-31.12 465.92-31.12L465.92-31.12L465.92-31.12Q470-31.12 472.24-28.64L472.24-28.64L472.24-28.64Q472.88-27.92 473.52-26.48L473.52-26.48L474.24-30.40L474.24-30.40Q480.16-30.40 482.88-30.88L482.88-30.88L483.92-31.12L478.64-1.60L478.64-1.60Q477.44 4.64 473.84 8.48L473.84 8.48L473.84 8.48Q474.88 8.72 476.16 8.72zM458.88-8.80L458.88-8.80Q458.88-5.12 459.60-3.88L459.60-3.88L459.60-3.88Q460.32-2.64 462.32-2.64L462.32-2.64L462.32-2.64Q464.32-2.64 466.40-4.80L466.40-4.80L466.40-4.80Q468.48-6.96 469.40-8.84L469.40-8.84L469.40-8.84Q470.32-10.72 470.96-12.48L470.96-12.48L472.64-21.68L472.64-22.24L472.64-22.24Q472.64-29.60 465.92-29.60L465.92-29.60L465.92-29.60Q463.36-29.60 461.12-22.64L461.12-22.64L461.12-22.64Q458.88-15.68 458.88-8.80L458.88-8.80zM458.32 13.12L458.32 13.12L458.32 13.12Q464.72 13.12 466.96 7.60L466.96 7.60L465.84 7.04L465.84 7.04Q464.88 6.56 464.68 6.44L464.68 6.44L464.68 6.44Q464.48 6.32 463.60 5.92L463.60 5.92L463.60 5.92Q462.72 5.52 462.32 5.40L462.32 5.40L462.32 5.40Q461.92 5.28 461.08 4.96L461.08 4.96L461.08 4.96Q460.24 4.64 459.68 4.52L459.68 4.52L459.68 4.52Q459.12 4.40 458.40 4.24L458.40 4.24L458.40 4.24Q457.20 4 454.88 4L454.88 4L454.88 4Q452.56 4 451.16 5.12L451.16 5.12L451.16 5.12Q449.76 6.24 449.76 8.40L449.76 8.40L449.76 8.40Q449.76 10.56 452.08 11.84L452.08 11.84L452.08 11.84Q454.40 13.12 458.32 13.12" fill="#93dbe9" stroke="none" stroke-width="none" transform="translate(-272.44000244140625,21.771925881125703)" style="fill: rgb(147, 219, 233);"></path></g><g class="path" style="transform: rotate(0deg); transform-origin: 228.36px 6.57192px; animation: 1s linear -0.06s infinite normal forwards running spin-f914a3af-a029-4138-9fb1-a8b6f9d20374;"><path d="M504.32-31.12L504.32-31.12L504.32-31.12Q514.48-31.12 514.48-23.04L514.48-23.04L514.48-23.04Q514.48-18 509.72-15.40L509.72-15.40L509.72-15.40Q504.96-12.80 496.16-12.72L496.16-12.72L496.16-12.72Q496-9.84 496-8.16L496-8.16L496-8.16Q496-4.56 497.64-2.84L497.64-2.84L497.64-2.84Q499.28-1.12 501.76-1.12L501.76-1.12L501.76-1.12Q504.24-1.12 506.28-2.08L506.28-2.08L506.28-2.08Q508.32-3.04 509.52-4.36L509.52-4.36L509.52-4.36Q510.72-5.68 511.60-7.12L511.60-7.12L511.60-7.12Q513.20-9.76 513.20-10.48L513.20-10.48L514.64-9.84L514.64-9.84Q514.40-8.56 513.20-6.44L513.20-6.44L513.20-6.44Q512-4.32 510.56-2.96L510.56-2.96L510.56-2.96Q509.12-1.60 506.32-0.44L506.32-0.44L506.32-0.44Q503.52 0.72 500.08 0.72L500.08 0.72L500.08 0.72Q493.60 0.72 490.28-2.36L490.28-2.36L490.28-2.36Q486.96-5.44 486.96-10.80L486.96-10.80L486.96-10.80Q486.96-20.32 491.68-25.72L491.68-25.72L491.68-25.72Q496.40-31.12 504.32-31.12zM512.48-23.04L512.48-23.04Q512.48-25.68 510.92-27.40L510.92-27.40L510.92-27.40Q509.36-29.12 506.28-29.12L506.28-29.12L506.28-29.12Q503.20-29.12 500.28-25.44L500.28-25.44L500.28-25.44Q497.36-21.76 496.40-14.56L496.40-14.56L496.40-14.56Q512.48-14.64 512.48-23.04L512.48-23.04" fill="#93dbe9" stroke="none" stroke-width="none" transform="translate(-272.44000244140625,21.771925881125703)" style="fill: rgb(147, 219, 233);"></path></g><g class="path" style="transform: rotate(0deg); transform-origin: 261.4px 6.21192px; animation: 1s linear 0s infinite normal forwards running spin-f914a3af-a029-4138-9fb1-a8b6f9d20374;"><path d="M520.48-27.28L519.28-28.24L519.28-28.24Q521.68-31.12 525.32-31.12L525.32-31.12L525.32-31.12Q528.96-31.12 530.96-29.28L530.96-29.28L530.96-29.28Q532.96-27.44 532.96-24.08L532.96-24.08L532.96-23.60L532.96-23.60Q536.56-31.12 542.32-31.12L542.32-31.12L542.32-31.12Q548.48-31.12 548.48-24.72L548.48-24.72L548.48-24.72Q548.48-22.08 546.72-19.12L546.72-19.12L546.72-19.12Q544.96-16.16 543.20-13.48L543.20-13.48L543.20-13.48Q541.44-10.80 541.44-8.72L541.44-8.72L539.52-8.72L539.52-8.72Q539.52-11.68 542.96-16.72L542.96-16.72L542.96-16.72Q546.40-21.76 546.40-24.52L546.40-24.52L546.40-24.52Q546.40-27.28 545.32-28.28L545.32-28.28L545.32-28.28Q544.24-29.28 542.12-29.28L542.12-29.28L542.12-29.28Q540-29.28 537.96-27.44L537.96-27.44L537.96-27.44Q535.92-25.60 534.56-22.80L534.56-22.80L534.56-22.80Q532.40-18.64 531.68-16L531.68-16L531.68-15.92L528.80 0L519.20 0L524.48-29.52L524.48-29.52Q522.08-29.28 520.48-27.28L520.48-27.28" fill="#93dbe9" stroke="none" stroke-width="none" transform="translate(-272.44000244140625,21.771925881125703)" style="fill: rgb(147, 219, 233);"></path></g></g>
</g>
</g>
<style id="spin-f914a3af-a029-4138-9fb1-a8b6f9d20374" data-anikit="">@keyframes spin-f914a3af-a029-4138-9fb1-a8b6f9d20374
{
  0% {
    animation-timing-function: cubic-bezier(0.5856,0.0703,0.4143,0.9297);
    transform: rotate(0deg);
  }
  100% {
    transform: rotate(360deg);
  }
}</style></svg>